<?xml version="1.0" encoding="utf-8" standalone="no"?>
<!DOCTYPE svg PUBLIC "-//W3C//DTD SVG 1.1//EN"
  "http://www.w3.org/Graphics/SVG/1.1/DTD/svg11.dtd">
<svg xmlns:xlink="http://www.w3.org/1999/xlink" width="712.541562pt" height="383.1809pt" viewBox="0 0 712.541562 383.1809" xmlns="http://www.w3.org/2000/svg" version="1.1">
 <metadata>
  <rdf:RDF xmlns:dc="http://purl.org/dc/elements/1.1/" xmlns:cc="http://creativecommons.org/ns#" xmlns:rdf="http://www.w3.org/1999/02/22-rdf-syntax-ns#">
   <cc:Work>
    <dc:type rdf:resource="http://purl.org/dc/dcmitype/StillImage"/>
    <dc:date>2026-07-25T16:14:37.974093</dc:date>
    <dc:format>image/svg+xml</dc:format>
    <dc:creator>
     <cc:Agent>
      <dc:title>Matplotlib v3.11.1, https://matplotlib.org/</dc:title>
     </cc:Agent>
    </dc:creator>
   </cc:Work>
  </rdf:RDF>
 </metadata>
 <defs>
  <style type="text/css">*{stroke-linejoin: round; stroke-linecap: butt}</style>
 </defs>
 <g id="figure_1">
  <g id="patch_1">
   <path d="M 0 383.1809 
L 712.541562 383.1809 
L 712.541562 0 
L 0 0 
z
" style="fill: #ffffff"/>
  </g>
  <g id="axes_1">
   <g id="patch_2">
    <path d="M 44.103906 358.980119 
L 705.341563 358.980119 
L 705.341563 46.015102 
L 44.103906 46.015102 
z
" style="fill: #ffffff"/>
   </g>
   <g id="patch_3">
    <path d="M 74.160163 358.980119 
L 104.725849 358.980119 
L 104.725849 258.834168 
L 74.160163 258.834168 
z
" clip-path="url(#p55c9e02020)" style="fill: #173f2b"/>
   </g>
   <g id="patch_4">
    <path d="M 201.517185 358.980119 
L 232.08287 358.980119 
L 232.08287 299.296179 
L 201.517185 299.296179 
z
" clip-path="url(#p55c9e02020)" style="fill: #173f2b"/>
   </g>
   <g id="patch_5">
    <path d="M 328.874207 358.980119 
L 359.439892 358.980119 
L 359.439892 268.964552 
L 328.874207 268.964552 
z
" clip-path="url(#p55c9e02020)" style="fill: #173f2b"/>
   </g>
   <g id="patch_6">
    <path d="M 456.231228 358.980119 
L 486.796913 358.980119 
L 486.796913 324.684421 
L 456.231228 324.684421 
z
" clip-path="url(#p55c9e02020)" style="fill: #173f2b"/>
   </g>
   <g id="patch_7">
    <path d="M 583.58825 358.980119 
L 614.153935 358.980119 
L 614.153935 179.802372 
L 583.58825 179.802372 
z
" clip-path="url(#p55c9e02020)" style="fill: #173f2b"/>
   </g>
   <g id="patch_8">
    <path d="M 104.725849 358.980119 
L 135.291534 358.980119 
L 135.291534 258.826426 
L 104.725849 258.826426 
z
" clip-path="url(#p55c9e02020)" style="fill: #d17a22"/>
   </g>
   <g id="patch_9">
    <path d="M 232.08287 358.980119 
L 262.648555 358.980119 
L 262.648555 299.255382 
L 232.08287 299.255382 
z
" clip-path="url(#p55c9e02020)" style="fill: #d17a22"/>
   </g>
   <g id="patch_10">
    <path d="M 359.439892 358.980119 
L 390.005577 358.980119 
L 390.005577 268.951746 
L 359.439892 268.951746 
z
" clip-path="url(#p55c9e02020)" style="fill: #d17a22"/>
   </g>
   <g id="patch_11">
    <path d="M 486.796913 358.980119 
L 517.362599 358.980119 
L 517.362599 324.453377 
L 486.796913 324.453377 
z
" clip-path="url(#p55c9e02020)" style="fill: #d17a22"/>
   </g>
   <g id="patch_12">
    <path d="M 614.153935 358.980119 
L 644.71962 358.980119 
L 644.71962 179.81912 
L 614.153935 179.81912 
z
" clip-path="url(#p55c9e02020)" style="fill: #d17a22"/>
   </g>
   <g id="patch_13">
    <path d="M 135.291534 358.980119 
L 165.857219 358.980119 
L 165.857219 259.739731 
L 135.291534 259.739731 
z
" clip-path="url(#p55c9e02020)" style="fill: #6e8ea6"/>
   </g>
   <g id="patch_14">
    <path d="M 262.648555 358.980119 
L 293.214241 358.980119 
L 293.214241 304.424028 
L 262.648555 304.424028 
z
" clip-path="url(#p55c9e02020)" style="fill: #6e8ea6"/>
   </g>
   <g id="patch_15">
    <path d="M 390.005577 358.980119 
L 420.571262 358.980119 
L 420.571262 286.169565 
L 390.005577 286.169565 
z
" clip-path="url(#p55c9e02020)" style="fill: #6e8ea6"/>
   </g>
   <g id="patch_16">
    <path d="M 517.362599 358.980119 
L 547.928284 358.980119 
L 547.928284 357.049613 
L 517.362599 357.049613 
z
" clip-path="url(#p55c9e02020)" style="fill: #6e8ea6"/>
   </g>
   <g id="patch_17">
    <path d="M 644.71962 358.980119 
L 675.285305 358.980119 
L 675.285305 174.089039 
L 644.71962 174.089039 
z
" clip-path="url(#p55c9e02020)" style="fill: #6e8ea6"/>
   </g>
   <g id="matplotlib.axis_1">
    <g id="xtick_1">
     <g id="line2d_1">
      <defs>
       <path id="m8239040bda" d="M 0 0 
L 0 3.5 
" style="stroke: #000000; stroke-width: 0.8"/>
      </defs>
      <g>
       <use xlink:href="#m8239040bda" x="120.008691" y="358.980119" style="stroke: #000000; stroke-width: 0.8"/>
      </g>
     </g>
     <g id="text_1">
      <!-- hobbies -->
      <g transform="translate(100.361816 373.578556) scale(0.1 -0.1)">
       <defs>
        <path id="DejaVuSans-4b" d="M 3513 2113 
L 3513 0 
L 2938 0 
L 2938 2094 
Q 2938 2591 2744 2837 
Q 2550 3084 2163 3084 
Q 1697 3084 1428 2787 
Q 1159 2491 1159 1978 
L 1159 0 
L 581 0 
L 581 4863 
L 1159 4863 
L 1159 2956 
Q 1366 3272 1645 3428 
Q 1925 3584 2291 3584 
Q 2894 3584 3203 3211 
Q 3513 2838 3513 2113 
z
" transform="scale(0.015625)"/>
        <path id="DejaVuSans-52" d="M 1959 3097 
Q 1497 3097 1228 2736 
Q 959 2375 959 1747 
Q 959 1119 1226 758 
Q 1494 397 1959 397 
Q 2419 397 2687 759 
Q 2956 1122 2956 1747 
Q 2956 2369 2687 2733 
Q 2419 3097 1959 3097 
z
M 1959 3584 
Q 2709 3584 3137 3096 
Q 3566 2609 3566 1747 
Q 3566 888 3137 398 
Q 2709 -91 1959 -91 
Q 1206 -91 779 398 
Q 353 888 353 1747 
Q 353 2609 779 3096 
Q 1206 3584 1959 3584 
z
" transform="scale(0.015625)"/>
        <path id="DejaVuSans-45" d="M 3116 1747 
Q 3116 2381 2855 2742 
Q 2594 3103 2138 3103 
Q 1681 3103 1420 2742 
Q 1159 2381 1159 1747 
Q 1159 1113 1420 752 
Q 1681 391 2138 391 
Q 2594 391 2855 752 
Q 3116 1113 3116 1747 
z
M 1159 2969 
Q 1341 3281 1617 3432 
Q 1894 3584 2278 3584 
Q 2916 3584 3314 3078 
Q 3713 2572 3713 1747 
Q 3713 922 3314 415 
Q 2916 -91 2278 -91 
Q 1894 -91 1617 61 
Q 1341 213 1159 525 
L 1159 0 
L 581 0 
L 581 4863 
L 1159 4863 
L 1159 2969 
z
" transform="scale(0.015625)"/>
        <path id="DejaVuSans-4c" d="M 603 3500 
L 1178 3500 
L 1178 0 
L 603 0 
L 603 3500 
z
M 603 4863 
L 1178 4863 
L 1178 4134 
L 603 4134 
L 603 4863 
z
" transform="scale(0.015625)"/>
        <path id="DejaVuSans-48" d="M 3597 1894 
L 3597 1613 
L 953 1613 
Q 991 1019 1311 708 
Q 1631 397 2203 397 
Q 2534 397 2845 478 
Q 3156 559 3463 722 
L 3463 178 
Q 3153 47 2828 -22 
Q 2503 -91 2169 -91 
Q 1331 -91 842 396 
Q 353 884 353 1716 
Q 353 2575 817 3079 
Q 1281 3584 2069 3584 
Q 2775 3584 3186 3129 
Q 3597 2675 3597 1894 
z
M 3022 2063 
Q 3016 2534 2758 2815 
Q 2500 3097 2075 3097 
Q 1594 3097 1305 2825 
Q 1016 2553 972 2059 
L 3022 2063 
z
" transform="scale(0.015625)"/>
        <path id="DejaVuSans-56" d="M 2834 3397 
L 2834 2853 
Q 2591 2978 2328 3040 
Q 2066 3103 1784 3103 
Q 1356 3103 1142 2972 
Q 928 2841 928 2578 
Q 928 2378 1081 2264 
Q 1234 2150 1697 2047 
L 1894 2003 
Q 2506 1872 2764 1633 
Q 3022 1394 3022 966 
Q 3022 478 2636 193 
Q 2250 -91 1575 -91 
Q 1294 -91 989 -36 
Q 684 19 347 128 
L 347 722 
Q 666 556 975 473 
Q 1284 391 1588 391 
Q 1994 391 2212 530 
Q 2431 669 2431 922 
Q 2431 1156 2273 1281 
Q 2116 1406 1581 1522 
L 1381 1569 
Q 847 1681 609 1914 
Q 372 2147 372 2553 
Q 372 3047 722 3315 
Q 1072 3584 1716 3584 
Q 2034 3584 2315 3537 
Q 2597 3491 2834 3397 
z
" transform="scale(0.015625)"/>
       </defs>
       <use xlink:href="#DejaVuSans-4b"/>
       <use xlink:href="#DejaVuSans-52" transform="translate(63.375 0)"/>
       <use xlink:href="#DejaVuSans-45" transform="translate(124.5625 0)"/>
       <use xlink:href="#DejaVuSans-45" transform="translate(188.046875 0)"/>
       <use xlink:href="#DejaVuSans-4c" transform="translate(251.53125 0)"/>
       <use xlink:href="#DejaVuSans-48" transform="translate(279.3125 0)"/>
       <use xlink:href="#DejaVuSans-56" transform="translate(340.84375 0)"/>
      </g>
     </g>
    </g>
    <g id="xtick_2">
     <g id="line2d_2">
      <g>
       <use xlink:href="#m8239040bda" x="247.365713" y="358.980119" style="stroke: #000000; stroke-width: 0.8"/>
      </g>
     </g>
     <g id="text_2">
      <!-- physical abilities -->
      <g transform="translate(205.842275 373.578556) scale(0.1 -0.1)">
       <defs>
        <path id="DejaVuSans-53" d="M 1159 525 
L 1159 -1331 
L 581 -1331 
L 581 3500 
L 1159 3500 
L 1159 2969 
Q 1341 3281 1617 3432 
Q 1894 3584 2278 3584 
Q 2916 3584 3314 3078 
Q 3713 2572 3713 1747 
Q 3713 922 3314 415 
Q 2916 -91 2278 -91 
Q 1894 -91 1617 61 
Q 1341 213 1159 525 
z
M 3116 1747 
Q 3116 2381 2855 2742 
Q 2594 3103 2138 3103 
Q 1681 3103 1420 2742 
Q 1159 2381 1159 1747 
Q 1159 1113 1420 752 
Q 1681 391 2138 391 
Q 2594 391 2855 752 
Q 3116 1113 3116 1747 
z
" transform="scale(0.015625)"/>
        <path id="DejaVuSans-5c" d="M 2059 -325 
Q 1816 -950 1584 -1140 
Q 1353 -1331 966 -1331 
L 506 -1331 
L 506 -850 
L 844 -850 
Q 1081 -850 1212 -737 
Q 1344 -625 1503 -206 
L 1606 56 
L 191 3500 
L 800 3500 
L 1894 763 
L 2988 3500 
L 3597 3500 
L 2059 -325 
z
" transform="scale(0.015625)"/>
        <path id="DejaVuSans-46" d="M 3122 3366 
L 3122 2828 
Q 2878 2963 2633 3030 
Q 2388 3097 2138 3097 
Q 1578 3097 1268 2742 
Q 959 2388 959 1747 
Q 959 1106 1268 751 
Q 1578 397 2138 397 
Q 2388 397 2633 464 
Q 2878 531 3122 666 
L 3122 134 
Q 2881 22 2623 -34 
Q 2366 -91 2075 -91 
Q 1284 -91 818 406 
Q 353 903 353 1747 
Q 353 2603 823 3093 
Q 1294 3584 2113 3584 
Q 2378 3584 2631 3529 
Q 2884 3475 3122 3366 
z
" transform="scale(0.015625)"/>
        <path id="DejaVuSans-44" d="M 2194 1759 
Q 1497 1759 1228 1600 
Q 959 1441 959 1056 
Q 959 750 1161 570 
Q 1363 391 1709 391 
Q 2188 391 2477 730 
Q 2766 1069 2766 1631 
L 2766 1759 
L 2194 1759 
z
M 3341 1997 
L 3341 0 
L 2766 0 
L 2766 531 
Q 2569 213 2275 61 
Q 1981 -91 1556 -91 
Q 1019 -91 701 211 
Q 384 513 384 1019 
Q 384 1609 779 1909 
Q 1175 2209 1959 2209 
L 2766 2209 
L 2766 2266 
Q 2766 2663 2505 2880 
Q 2244 3097 1772 3097 
Q 1472 3097 1187 3025 
Q 903 2953 641 2809 
L 641 3341 
Q 956 3463 1253 3523 
Q 1550 3584 1831 3584 
Q 2591 3584 2966 3190 
Q 3341 2797 3341 1997 
z
" transform="scale(0.015625)"/>
        <path id="DejaVuSans-4f" d="M 603 4863 
L 1178 4863 
L 1178 0 
L 603 0 
L 603 4863 
z
" transform="scale(0.015625)"/>
        <path id="DejaVuSans-3" transform="scale(0.015625)"/>
        <path id="DejaVuSans-57" d="M 1172 4494 
L 1172 3500 
L 2356 3500 
L 2356 3053 
L 1172 3053 
L 1172 1153 
Q 1172 725 1289 603 
Q 1406 481 1766 481 
L 2356 481 
L 2356 0 
L 1766 0 
Q 1100 0 847 248 
Q 594 497 594 1153 
L 594 3053 
L 172 3053 
L 172 3500 
L 594 3500 
L 594 4494 
L 1172 4494 
z
" transform="scale(0.015625)"/>
       </defs>
       <use xlink:href="#DejaVuSans-53"/>
       <use xlink:href="#DejaVuSans-4b" transform="translate(63.484375 0)"/>
       <use xlink:href="#DejaVuSans-5c" transform="translate(126.859375 0)"/>
       <use xlink:href="#DejaVuSans-56" transform="translate(186.046875 0)"/>
       <use xlink:href="#DejaVuSans-4c" transform="translate(238.140625 0)"/>
       <use xlink:href="#DejaVuSans-46" transform="translate(265.921875 0)"/>
       <use xlink:href="#DejaVuSans-44" transform="translate(320.90625 0)"/>
       <use xlink:href="#DejaVuSans-4f" transform="translate(382.1875 0)"/>
       <use xlink:href="#DejaVuSans-3" transform="translate(409.96875 0)"/>
       <use xlink:href="#DejaVuSans-44" transform="translate(441.75 0)"/>
       <use xlink:href="#DejaVuSans-45" transform="translate(503.03125 0)"/>
       <use xlink:href="#DejaVuSans-4c" transform="translate(566.515625 0)"/>
       <use xlink:href="#DejaVuSans-4f" transform="translate(594.296875 0)"/>
       <use xlink:href="#DejaVuSans-4c" transform="translate(622.078125 0)"/>
       <use xlink:href="#DejaVuSans-57" transform="translate(649.859375 0)"/>
       <use xlink:href="#DejaVuSans-4c" transform="translate(689.0625 0)"/>
       <use xlink:href="#DejaVuSans-48" transform="translate(716.84375 0)"/>
       <use xlink:href="#DejaVuSans-56" transform="translate(778.375 0)"/>
      </g>
     </g>
    </g>
    <g id="xtick_3">
     <g id="line2d_3">
      <g>
       <use xlink:href="#m8239040bda" x="374.722734" y="358.980119" style="stroke: #000000; stroke-width: 0.8"/>
      </g>
     </g>
     <g id="text_3">
      <!-- parenting -->
      <g transform="translate(350.601641 373.578556) scale(0.1 -0.1)">
       <defs>
        <path id="DejaVuSans-55" d="M 2631 2963 
Q 2534 3019 2420 3045 
Q 2306 3072 2169 3072 
Q 1681 3072 1420 2755 
Q 1159 2438 1159 1844 
L 1159 0 
L 581 0 
L 581 3500 
L 1159 3500 
L 1159 2956 
Q 1341 3275 1631 3429 
Q 1922 3584 2338 3584 
Q 2397 3584 2469 3576 
Q 2541 3569 2628 3553 
L 2631 2963 
z
" transform="scale(0.015625)"/>
        <path id="DejaVuSans-51" d="M 3513 2113 
L 3513 0 
L 2938 0 
L 2938 2094 
Q 2938 2591 2744 2837 
Q 2550 3084 2163 3084 
Q 1697 3084 1428 2787 
Q 1159 2491 1159 1978 
L 1159 0 
L 581 0 
L 581 3500 
L 1159 3500 
L 1159 2956 
Q 1366 3272 1645 3428 
Q 1925 3584 2291 3584 
Q 2894 3584 3203 3211 
Q 3513 2838 3513 2113 
z
" transform="scale(0.015625)"/>
        <path id="DejaVuSans-4a" d="M 2906 1791 
Q 2906 2416 2648 2759 
Q 2391 3103 1925 3103 
Q 1463 3103 1205 2759 
Q 947 2416 947 1791 
Q 947 1169 1205 825 
Q 1463 481 1925 481 
Q 2391 481 2648 825 
Q 2906 1169 2906 1791 
z
M 3481 434 
Q 3481 -459 3084 -895 
Q 2688 -1331 1869 -1331 
Q 1566 -1331 1297 -1286 
Q 1028 -1241 775 -1147 
L 775 -588 
Q 1028 -725 1275 -790 
Q 1522 -856 1778 -856 
Q 2344 -856 2625 -561 
Q 2906 -266 2906 331 
L 2906 616 
Q 2728 306 2450 153 
Q 2172 0 1784 0 
Q 1141 0 747 490 
Q 353 981 353 1791 
Q 353 2603 747 3093 
Q 1141 3584 1784 3584 
Q 2172 3584 2450 3431 
Q 2728 3278 2906 2969 
L 2906 3500 
L 3481 3500 
L 3481 434 
z
" transform="scale(0.015625)"/>
       </defs>
       <use xlink:href="#DejaVuSans-53"/>
       <use xlink:href="#DejaVuSans-44" transform="translate(63.484375 0)"/>
       <use xlink:href="#DejaVuSans-55" transform="translate(124.765625 0)"/>
       <use xlink:href="#DejaVuSans-48" transform="translate(163.671875 0)"/>
       <use xlink:href="#DejaVuSans-51" transform="translate(225.203125 0)"/>
       <use xlink:href="#DejaVuSans-57" transform="translate(288.578125 0)"/>
       <use xlink:href="#DejaVuSans-4c" transform="translate(327.78125 0)"/>
       <use xlink:href="#DejaVuSans-51" transform="translate(355.5625 0)"/>
       <use xlink:href="#DejaVuSans-4a" transform="translate(418.9375 0)"/>
      </g>
     </g>
    </g>
    <g id="xtick_4">
     <g id="line2d_4">
      <g>
       <use xlink:href="#m8239040bda" x="502.079756" y="358.980119" style="stroke: #000000; stroke-width: 0.8"/>
      </g>
     </g>
     <g id="text_4">
      <!-- feelings -->
      <g transform="translate(482.440693 373.578556) scale(0.1 -0.1)">
       <defs>
        <path id="DejaVuSans-49" d="M 2375 4863 
L 2375 4384 
L 1825 4384 
Q 1516 4384 1395 4259 
Q 1275 4134 1275 3809 
L 1275 3500 
L 2222 3500 
L 2222 3053 
L 1275 3053 
L 1275 0 
L 697 0 
L 697 3053 
L 147 3053 
L 147 3500 
L 697 3500 
L 697 3744 
Q 697 4328 969 4595 
Q 1241 4863 1831 4863 
L 2375 4863 
z
" transform="scale(0.015625)"/>
       </defs>
       <use xlink:href="#DejaVuSans-49"/>
       <use xlink:href="#DejaVuSans-48" transform="translate(35.203125 0)"/>
       <use xlink:href="#DejaVuSans-48" transform="translate(96.734375 0)"/>
       <use xlink:href="#DejaVuSans-4f" transform="translate(158.265625 0)"/>
       <use xlink:href="#DejaVuSans-4c" transform="translate(186.046875 0)"/>
       <use xlink:href="#DejaVuSans-51" transform="translate(213.828125 0)"/>
       <use xlink:href="#DejaVuSans-4a" transform="translate(277.203125 0)"/>
       <use xlink:href="#DejaVuSans-56" transform="translate(340.6875 0)"/>
      </g>
     </g>
    </g>
    <g id="xtick_5">
     <g id="line2d_5">
      <g>
       <use xlink:href="#m8239040bda" x="629.436778" y="358.980119" style="stroke: #000000; stroke-width: 0.8"/>
      </g>
     </g>
     <g id="text_5">
      <!-- workplace -->
      <g transform="translate(603.884434 373.578556) scale(0.1 -0.1)">
       <defs>
        <path id="DejaVuSans-5a" d="M 269 3500 
L 844 3500 
L 1563 769 
L 2278 3500 
L 2956 3500 
L 3675 769 
L 4391 3500 
L 4966 3500 
L 4050 0 
L 3372 0 
L 2619 2869 
L 1863 0 
L 1184 0 
L 269 3500 
z
" transform="scale(0.015625)"/>
        <path id="DejaVuSans-4e" d="M 581 4863 
L 1159 4863 
L 1159 1991 
L 2875 3500 
L 3609 3500 
L 1753 1863 
L 3688 0 
L 2938 0 
L 1159 1709 
L 1159 0 
L 581 0 
L 581 4863 
z
" transform="scale(0.015625)"/>
       </defs>
       <use xlink:href="#DejaVuSans-5a"/>
       <use xlink:href="#DejaVuSans-52" transform="translate(81.78125 0)"/>
       <use xlink:href="#DejaVuSans-55" transform="translate(142.96875 0)"/>
       <use xlink:href="#DejaVuSans-4e" transform="translate(184.078125 0)"/>
       <use xlink:href="#DejaVuSans-53" transform="translate(241.984375 0)"/>
       <use xlink:href="#DejaVuSans-4f" transform="translate(305.46875 0)"/>
       <use xlink:href="#DejaVuSans-44" transform="translate(333.25 0)"/>
       <use xlink:href="#DejaVuSans-46" transform="translate(394.53125 0)"/>
       <use xlink:href="#DejaVuSans-48" transform="translate(449.515625 0)"/>
      </g>
     </g>
    </g>
   </g>
   <g id="matplotlib.axis_2">
    <g id="ytick_1">
     <g id="line2d_6">
      <defs>
       <path id="m3df4a652b8" d="M 0 0 
L -3.5 0 
" style="stroke: #000000; stroke-width: 0.8"/>
      </defs>
      <g>
       <use xlink:href="#m3df4a652b8" x="44.103906" y="358.980119" style="stroke: #000000; stroke-width: 0.8"/>
      </g>
     </g>
     <g id="text_6">
      <!-- 0.0 -->
      <g transform="translate(21.200781 362.778947) scale(0.1 -0.1)">
       <defs>
        <path id="DejaVuSans-13" d="M 2034 4250 
Q 1547 4250 1301 3770 
Q 1056 3291 1056 2328 
Q 1056 1369 1301 889 
Q 1547 409 2034 409 
Q 2525 409 2770 889 
Q 3016 1369 3016 2328 
Q 3016 3291 2770 3770 
Q 2525 4250 2034 4250 
z
M 2034 4750 
Q 2819 4750 3233 4129 
Q 3647 3509 3647 2328 
Q 3647 1150 3233 529 
Q 2819 -91 2034 -91 
Q 1250 -91 836 529 
Q 422 1150 422 2328 
Q 422 3509 836 4129 
Q 1250 4750 2034 4750 
z
" transform="scale(0.015625)"/>
        <path id="DejaVuSans-11" d="M 684 794 
L 1344 794 
L 1344 0 
L 684 0 
L 684 794 
z
" transform="scale(0.015625)"/>
       </defs>
       <use xlink:href="#DejaVuSans-13"/>
       <use xlink:href="#DejaVuSans-11" transform="translate(63.625 0)"/>
       <use xlink:href="#DejaVuSans-13" transform="translate(95.40625 0)"/>
      </g>
     </g>
    </g>
    <g id="ytick_2">
     <g id="line2d_7">
      <g>
       <use xlink:href="#m3df4a652b8" x="44.103906" y="296.387115" style="stroke: #000000; stroke-width: 0.8"/>
      </g>
     </g>
     <g id="text_7">
      <!-- 0.2 -->
      <g transform="translate(21.200781 300.185943) scale(0.1 -0.1)">
       <defs>
        <path id="DejaVuSans-15" d="M 1228 531 
L 3431 531 
L 3431 0 
L 469 0 
L 469 531 
Q 828 903 1448 1529 
Q 2069 2156 2228 2338 
Q 2531 2678 2651 2914 
Q 2772 3150 2772 3378 
Q 2772 3750 2511 3984 
Q 2250 4219 1831 4219 
Q 1534 4219 1204 4116 
Q 875 4013 500 3803 
L 500 4441 
Q 881 4594 1212 4672 
Q 1544 4750 1819 4750 
Q 2544 4750 2975 4387 
Q 3406 4025 3406 3419 
Q 3406 3131 3298 2873 
Q 3191 2616 2906 2266 
Q 2828 2175 2409 1742 
Q 1991 1309 1228 531 
z
" transform="scale(0.015625)"/>
       </defs>
       <use xlink:href="#DejaVuSans-13"/>
       <use xlink:href="#DejaVuSans-11" transform="translate(63.625 0)"/>
       <use xlink:href="#DejaVuSans-15" transform="translate(95.40625 0)"/>
      </g>
     </g>
    </g>
    <g id="ytick_3">
     <g id="line2d_8">
      <g>
       <use xlink:href="#m3df4a652b8" x="44.103906" y="233.794112" style="stroke: #000000; stroke-width: 0.8"/>
      </g>
     </g>
     <g id="text_8">
      <!-- 0.4 -->
      <g transform="translate(21.200781 237.59294) scale(0.1 -0.1)">
       <defs>
        <path id="DejaVuSans-17" d="M 2419 4116 
L 825 1625 
L 2419 1625 
L 2419 4116 
z
M 2253 4666 
L 3047 4666 
L 3047 1625 
L 3713 1625 
L 3713 1100 
L 3047 1100 
L 3047 0 
L 2419 0 
L 2419 1100 
L 313 1100 
L 313 1709 
L 2253 4666 
z
" transform="scale(0.015625)"/>
       </defs>
       <use xlink:href="#DejaVuSans-13"/>
       <use xlink:href="#DejaVuSans-11" transform="translate(63.625 0)"/>
       <use xlink:href="#DejaVuSans-17" transform="translate(95.40625 0)"/>
      </g>
     </g>
    </g>
    <g id="ytick_4">
     <g id="line2d_9">
      <g>
       <use xlink:href="#m3df4a652b8" x="44.103906" y="171.201109" style="stroke: #000000; stroke-width: 0.8"/>
      </g>
     </g>
     <g id="text_9">
      <!-- 0.6 -->
      <g transform="translate(21.200781 174.999937) scale(0.1 -0.1)">
       <defs>
        <path id="DejaVuSans-19" d="M 2113 2584 
Q 1688 2584 1439 2293 
Q 1191 2003 1191 1497 
Q 1191 994 1439 701 
Q 1688 409 2113 409 
Q 2538 409 2786 701 
Q 3034 994 3034 1497 
Q 3034 2003 2786 2293 
Q 2538 2584 2113 2584 
z
M 3366 4563 
L 3366 3988 
Q 3128 4100 2886 4159 
Q 2644 4219 2406 4219 
Q 1781 4219 1451 3797 
Q 1122 3375 1075 2522 
Q 1259 2794 1537 2939 
Q 1816 3084 2150 3084 
Q 2853 3084 3261 2657 
Q 3669 2231 3669 1497 
Q 3669 778 3244 343 
Q 2819 -91 2113 -91 
Q 1303 -91 875 529 
Q 447 1150 447 2328 
Q 447 3434 972 4092 
Q 1497 4750 2381 4750 
Q 2619 4750 2861 4703 
Q 3103 4656 3366 4563 
z
" transform="scale(0.015625)"/>
       </defs>
       <use xlink:href="#DejaVuSans-13"/>
       <use xlink:href="#DejaVuSans-11" transform="translate(63.625 0)"/>
       <use xlink:href="#DejaVuSans-19" transform="translate(95.40625 0)"/>
      </g>
     </g>
    </g>
    <g id="ytick_5">
     <g id="line2d_10">
      <g>
       <use xlink:href="#m3df4a652b8" x="44.103906" y="108.608106" style="stroke: #000000; stroke-width: 0.8"/>
      </g>
     </g>
     <g id="text_10">
      <!-- 0.8 -->
      <g transform="translate(21.200781 112.406934) scale(0.1 -0.1)">
       <defs>
        <path id="DejaVuSans-1b" d="M 2034 2216 
Q 1584 2216 1326 1975 
Q 1069 1734 1069 1313 
Q 1069 891 1326 650 
Q 1584 409 2034 409 
Q 2484 409 2743 651 
Q 3003 894 3003 1313 
Q 3003 1734 2745 1975 
Q 2488 2216 2034 2216 
z
M 1403 2484 
Q 997 2584 770 2862 
Q 544 3141 544 3541 
Q 544 4100 942 4425 
Q 1341 4750 2034 4750 
Q 2731 4750 3128 4425 
Q 3525 4100 3525 3541 
Q 3525 3141 3298 2862 
Q 3072 2584 2669 2484 
Q 3125 2378 3379 2068 
Q 3634 1759 3634 1313 
Q 3634 634 3220 271 
Q 2806 -91 2034 -91 
Q 1263 -91 848 271 
Q 434 634 434 1313 
Q 434 1759 690 2068 
Q 947 2378 1403 2484 
z
M 1172 3481 
Q 1172 3119 1398 2916 
Q 1625 2713 2034 2713 
Q 2441 2713 2670 2916 
Q 2900 3119 2900 3481 
Q 2900 3844 2670 4047 
Q 2441 4250 2034 4250 
Q 1625 4250 1398 4047 
Q 1172 3844 1172 3481 
z
" transform="scale(0.015625)"/>
       </defs>
       <use xlink:href="#DejaVuSans-13"/>
       <use xlink:href="#DejaVuSans-11" transform="translate(63.625 0)"/>
       <use xlink:href="#DejaVuSans-1b" transform="translate(95.40625 0)"/>
      </g>
     </g>
    </g>
    <g id="ytick_6">
     <g id="line2d_11">
      <g>
       <use xlink:href="#m3df4a652b8" x="44.103906" y="46.015102" style="stroke: #000000; stroke-width: 0.8"/>
      </g>
     </g>
     <g id="text_11">
      <!-- 1.0 -->
      <g transform="translate(21.200781 49.81393) scale(0.1 -0.1)">
       <defs>
        <path id="DejaVuSans-14" d="M 794 531 
L 1825 531 
L 1825 4091 
L 703 3866 
L 703 4441 
L 1819 4666 
L 2450 4666 
L 2450 531 
L 3481 531 
L 3481 0 
L 794 0 
L 794 531 
z
" transform="scale(0.015625)"/>
       </defs>
       <use xlink:href="#DejaVuSans-14"/>
       <use xlink:href="#DejaVuSans-11" transform="translate(63.625 0)"/>
       <use xlink:href="#DejaVuSans-13" transform="translate(95.40625 0)"/>
      </g>
     </g>
    </g>
    <g id="text_12">
     <!-- Share answering “Men and women are basically similar” -->
     <g transform="translate(14.798438 344.092923) rotate(-90) scale(0.1 -0.1)">
      <defs>
       <path id="DejaVuSans-36" d="M 3425 4513 
L 3425 3897 
Q 3066 4069 2747 4153 
Q 2428 4238 2131 4238 
Q 1616 4238 1336 4038 
Q 1056 3838 1056 3469 
Q 1056 3159 1242 3001 
Q 1428 2844 1947 2747 
L 2328 2669 
Q 3034 2534 3370 2195 
Q 3706 1856 3706 1288 
Q 3706 609 3251 259 
Q 2797 -91 1919 -91 
Q 1588 -91 1214 -16 
Q 841 59 441 206 
L 441 856 
Q 825 641 1194 531 
Q 1563 422 1919 422 
Q 2459 422 2753 634 
Q 3047 847 3047 1241 
Q 3047 1584 2836 1778 
Q 2625 1972 2144 2069 
L 1759 2144 
Q 1053 2284 737 2584 
Q 422 2884 422 3419 
Q 422 4038 858 4394 
Q 1294 4750 2059 4750 
Q 2388 4750 2728 4690 
Q 3069 4631 3425 4513 
z
" transform="scale(0.015625)"/>
       <path id="DejaVuSans-afe" d="M 1203 3128 
L 544 3128 
L 544 3669 
L 1056 4666 
L 1459 4666 
L 1203 3669 
L 1203 3128 
z
M 2484 3128 
L 1825 3128 
L 1825 3669 
L 2338 4666 
L 2741 4666 
L 2484 3669 
L 2484 3128 
z
" transform="scale(0.015625)"/>
       <path id="DejaVuSans-30" d="M 628 4666 
L 1569 4666 
L 2759 1491 
L 3956 4666 
L 4897 4666 
L 4897 0 
L 4281 0 
L 4281 4097 
L 3078 897 
L 2444 897 
L 1241 4097 
L 1241 0 
L 628 0 
L 628 4666 
z
" transform="scale(0.015625)"/>
       <path id="DejaVuSans-47" d="M 2906 2969 
L 2906 4863 
L 3481 4863 
L 3481 0 
L 2906 0 
L 2906 525 
Q 2725 213 2448 61 
Q 2172 -91 1784 -91 
Q 1150 -91 751 415 
Q 353 922 353 1747 
Q 353 2572 751 3078 
Q 1150 3584 1784 3584 
Q 2172 3584 2448 3432 
Q 2725 3281 2906 2969 
z
M 947 1747 
Q 947 1113 1208 752 
Q 1469 391 1925 391 
Q 2381 391 2643 752 
Q 2906 1113 2906 1747 
Q 2906 2381 2643 2742 
Q 2381 3103 1925 3103 
Q 1469 3103 1208 2742 
Q 947 2381 947 1747 
z
" transform="scale(0.015625)"/>
       <path id="DejaVuSans-50" d="M 3328 2828 
Q 3544 3216 3844 3400 
Q 4144 3584 4550 3584 
Q 5097 3584 5394 3201 
Q 5691 2819 5691 2113 
L 5691 0 
L 5113 0 
L 5113 2094 
Q 5113 2597 4934 2840 
Q 4756 3084 4391 3084 
Q 3944 3084 3684 2787 
Q 3425 2491 3425 1978 
L 3425 0 
L 2847 0 
L 2847 2094 
Q 2847 2600 2669 2842 
Q 2491 3084 2119 3084 
Q 1678 3084 1418 2786 
Q 1159 2488 1159 1978 
L 1159 0 
L 581 0 
L 581 3500 
L 1159 3500 
L 1159 2956 
Q 1356 3278 1631 3431 
Q 1906 3584 2284 3584 
Q 2666 3584 2933 3390 
Q 3200 3197 3328 2828 
z
" transform="scale(0.015625)"/>
       <path id="DejaVuSans-aff" d="M 800 4666 
L 1459 4666 
L 1459 4128 
L 947 3128 
L 544 3128 
L 800 4128 
L 800 4666 
z
M 2081 4666 
L 2741 4666 
L 2741 4128 
L 2228 3128 
L 1825 3128 
L 2081 4128 
L 2081 4666 
z
" transform="scale(0.015625)"/>
      </defs>
      <use xlink:href="#DejaVuSans-36"/>
      <use xlink:href="#DejaVuSans-4b" transform="translate(63.484375 0)"/>
      <use xlink:href="#DejaVuSans-44" transform="translate(126.859375 0)"/>
      <use xlink:href="#DejaVuSans-55" transform="translate(188.140625 0)"/>
      <use xlink:href="#DejaVuSans-48" transform="translate(227.046875 0)"/>
      <use xlink:href="#DejaVuSans-3" transform="translate(288.578125 0)"/>
      <use xlink:href="#DejaVuSans-44" transform="translate(320.359375 0)"/>
      <use xlink:href="#DejaVuSans-51" transform="translate(381.640625 0)"/>
      <use xlink:href="#DejaVuSans-56" transform="translate(445.015625 0)"/>
      <use xlink:href="#DejaVuSans-5a" transform="translate(497.109375 0)"/>
      <use xlink:href="#DejaVuSans-48" transform="translate(578.890625 0)"/>
      <use xlink:href="#DejaVuSans-55" transform="translate(640.421875 0)"/>
      <use xlink:href="#DejaVuSans-4c" transform="translate(681.53125 0)"/>
      <use xlink:href="#DejaVuSans-51" transform="translate(709.3125 0)"/>
      <use xlink:href="#DejaVuSans-4a" transform="translate(772.6875 0)"/>
      <use xlink:href="#DejaVuSans-3" transform="translate(836.171875 0)"/>
      <use xlink:href="#DejaVuSans-afe" transform="translate(867.953125 0)"/>
      <use xlink:href="#DejaVuSans-30" transform="translate(919.765625 0)"/>
      <use xlink:href="#DejaVuSans-48" transform="translate(1006.046875 0)"/>
      <use xlink:href="#DejaVuSans-51" transform="translate(1067.578125 0)"/>
      <use xlink:href="#DejaVuSans-3" transform="translate(1130.953125 0)"/>
      <use xlink:href="#DejaVuSans-44" transform="translate(1162.734375 0)"/>
      <use xlink:href="#DejaVuSans-51" transform="translate(1224.015625 0)"/>
      <use xlink:href="#DejaVuSans-47" transform="translate(1287.390625 0)"/>
      <use xlink:href="#DejaVuSans-3" transform="translate(1350.875 0)"/>
      <use xlink:href="#DejaVuSans-5a" transform="translate(1382.65625 0)"/>
      <use xlink:href="#DejaVuSans-52" transform="translate(1464.4375 0)"/>
      <use xlink:href="#DejaVuSans-50" transform="translate(1525.625 0)"/>
      <use xlink:href="#DejaVuSans-48" transform="translate(1623.03125 0)"/>
      <use xlink:href="#DejaVuSans-51" transform="translate(1684.5625 0)"/>
      <use xlink:href="#DejaVuSans-3" transform="translate(1747.9375 0)"/>
      <use xlink:href="#DejaVuSans-44" transform="translate(1779.71875 0)"/>
      <use xlink:href="#DejaVuSans-55" transform="translate(1841 0)"/>
      <use xlink:href="#DejaVuSans-48" transform="translate(1879.90625 0)"/>
      <use xlink:href="#DejaVuSans-3" transform="translate(1941.4375 0)"/>
      <use xlink:href="#DejaVuSans-45" transform="translate(1973.21875 0)"/>
      <use xlink:href="#DejaVuSans-44" transform="translate(2036.703125 0)"/>
      <use xlink:href="#DejaVuSans-56" transform="translate(2097.984375 0)"/>
      <use xlink:href="#DejaVuSans-4c" transform="translate(2150.078125 0)"/>
      <use xlink:href="#DejaVuSans-46" transform="translate(2177.859375 0)"/>
      <use xlink:href="#DejaVuSans-44" transform="translate(2232.84375 0)"/>
      <use xlink:href="#DejaVuSans-4f" transform="translate(2294.125 0)"/>
      <use xlink:href="#DejaVuSans-4f" transform="translate(2321.90625 0)"/>
      <use xlink:href="#DejaVuSans-5c" transform="translate(2349.6875 0)"/>
      <use xlink:href="#DejaVuSans-3" transform="translate(2408.875 0)"/>
      <use xlink:href="#DejaVuSans-56" transform="translate(2440.65625 0)"/>
      <use xlink:href="#DejaVuSans-4c" transform="translate(2492.75 0)"/>
      <use xlink:href="#DejaVuSans-50" transform="translate(2520.53125 0)"/>
      <use xlink:href="#DejaVuSans-4c" transform="translate(2617.9375 0)"/>
      <use xlink:href="#DejaVuSans-4f" transform="translate(2645.71875 0)"/>
      <use xlink:href="#DejaVuSans-44" transform="translate(2673.5 0)"/>
      <use xlink:href="#DejaVuSans-55" transform="translate(2734.78125 0)"/>
      <use xlink:href="#DejaVuSans-aff" transform="translate(2780.09375 0)"/>
     </g>
    </g>
   </g>
   <g id="patch_18">
    <path d="M 44.103906 358.980119 
L 44.103906 46.015102 
" style="fill: none; stroke: #000000; stroke-width: 0.8; stroke-linejoin: miter; stroke-linecap: square"/>
   </g>
   <g id="patch_19">
    <path d="M 44.103906 358.980119 
L 705.341563 358.980119 
" style="fill: none; stroke: #000000; stroke-width: 0.8; stroke-linejoin: miter; stroke-linecap: square"/>
   </g>
   <g id="legend_1">
    <g id="patch_20">
     <path d="M 138.866484 18.798437 
L 158.866484 18.798437 
L 158.866484 11.798437 
L 138.866484 11.798437 
z
" style="fill: #173f2b"/>
    </g>
    <g id="text_13">
     <!-- Real Pew marginal -->
     <g transform="translate(166.866484 18.798437) scale(0.1 -0.1)">
      <defs>
       <path id="DejaVuSans-35" d="M 2841 2188 
Q 3044 2119 3236 1894 
Q 3428 1669 3622 1275 
L 4263 0 
L 3584 0 
L 2988 1197 
Q 2756 1666 2539 1819 
Q 2322 1972 1947 1972 
L 1259 1972 
L 1259 0 
L 628 0 
L 628 4666 
L 2053 4666 
Q 2853 4666 3247 4331 
Q 3641 3997 3641 3322 
Q 3641 2881 3436 2590 
Q 3231 2300 2841 2188 
z
M 1259 4147 
L 1259 2491 
L 2053 2491 
Q 2509 2491 2742 2702 
Q 2975 2913 2975 3322 
Q 2975 3731 2742 3939 
Q 2509 4147 2053 4147 
L 1259 4147 
z
" transform="scale(0.015625)"/>
       <path id="DejaVuSans-33" d="M 1259 4147 
L 1259 2394 
L 2053 2394 
Q 2494 2394 2734 2622 
Q 2975 2850 2975 3272 
Q 2975 3691 2734 3919 
Q 2494 4147 2053 4147 
L 1259 4147 
z
M 628 4666 
L 2053 4666 
Q 2838 4666 3239 4311 
Q 3641 3956 3641 3272 
Q 3641 2581 3239 2228 
Q 2838 1875 2053 1875 
L 1259 1875 
L 1259 0 
L 628 0 
L 628 4666 
z
" transform="scale(0.015625)"/>
      </defs>
      <use xlink:href="#DejaVuSans-35"/>
      <use xlink:href="#DejaVuSans-48" transform="translate(65 0)"/>
      <use xlink:href="#DejaVuSans-44" transform="translate(126.53125 0)"/>
      <use xlink:href="#DejaVuSans-4f" transform="translate(187.8125 0)"/>
      <use xlink:href="#DejaVuSans-3" transform="translate(215.59375 0)"/>
      <use xlink:href="#DejaVuSans-33" transform="translate(247.375 0)"/>
      <use xlink:href="#DejaVuSans-48" transform="translate(304.109375 0)"/>
      <use xlink:href="#DejaVuSans-5a" transform="translate(365.640625 0)"/>
      <use xlink:href="#DejaVuSans-3" transform="translate(447.421875 0)"/>
      <use xlink:href="#DejaVuSans-50" transform="translate(479.203125 0)"/>
      <use xlink:href="#DejaVuSans-44" transform="translate(576.609375 0)"/>
      <use xlink:href="#DejaVuSans-55" transform="translate(637.890625 0)"/>
      <use xlink:href="#DejaVuSans-4a" transform="translate(677.25 0)"/>
      <use xlink:href="#DejaVuSans-4c" transform="translate(740.734375 0)"/>
      <use xlink:href="#DejaVuSans-51" transform="translate(768.515625 0)"/>
      <use xlink:href="#DejaVuSans-44" transform="translate(831.890625 0)"/>
      <use xlink:href="#DejaVuSans-4f" transform="translate(893.171875 0)"/>
     </g>
    </g>
    <g id="patch_21">
     <path d="M 278.961797 18.798437 
L 298.961797 18.798437 
L 298.961797 11.798437 
L 278.961797 11.798437 
z
" style="fill: #d17a22"/>
    </g>
    <g id="text_14">
     <!-- Fitted probability mixture -->
     <g transform="translate(306.961797 18.798437) scale(0.1 -0.1)">
      <defs>
       <path id="DejaVuSans-29" d="M 628 4666 
L 3309 4666 
L 3309 4134 
L 1259 4134 
L 1259 2759 
L 3109 2759 
L 3109 2228 
L 1259 2228 
L 1259 0 
L 628 0 
L 628 4666 
z
" transform="scale(0.015625)"/>
       <path id="DejaVuSans-5b" d="M 3513 3500 
L 2247 1797 
L 3578 0 
L 2900 0 
L 1881 1375 
L 863 0 
L 184 0 
L 1544 1831 
L 300 3500 
L 978 3500 
L 1906 2253 
L 2834 3500 
L 3513 3500 
z
" transform="scale(0.015625)"/>
       <path id="DejaVuSans-58" d="M 544 1381 
L 544 3500 
L 1119 3500 
L 1119 1403 
Q 1119 906 1312 657 
Q 1506 409 1894 409 
Q 2359 409 2629 706 
Q 2900 1003 2900 1516 
L 2900 3500 
L 3475 3500 
L 3475 0 
L 2900 0 
L 2900 538 
Q 2691 219 2414 64 
Q 2138 -91 1772 -91 
Q 1169 -91 856 284 
Q 544 659 544 1381 
z
M 1991 3584 
L 1991 3584 
z
" transform="scale(0.015625)"/>
      </defs>
      <use xlink:href="#DejaVuSans-29"/>
      <use xlink:href="#DejaVuSans-4c" transform="translate(50.234375 0)"/>
      <use xlink:href="#DejaVuSans-57" transform="translate(78.015625 0)"/>
      <use xlink:href="#DejaVuSans-57" transform="translate(117.21875 0)"/>
      <use xlink:href="#DejaVuSans-48" transform="translate(156.421875 0)"/>
      <use xlink:href="#DejaVuSans-47" transform="translate(217.953125 0)"/>
      <use xlink:href="#DejaVuSans-3" transform="translate(281.4375 0)"/>
      <use xlink:href="#DejaVuSans-53" transform="translate(313.21875 0)"/>
      <use xlink:href="#DejaVuSans-55" transform="translate(376.703125 0)"/>
      <use xlink:href="#DejaVuSans-52" transform="translate(415.609375 0)"/>
      <use xlink:href="#DejaVuSans-45" transform="translate(476.796875 0)"/>
      <use xlink:href="#DejaVuSans-44" transform="translate(540.28125 0)"/>
      <use xlink:href="#DejaVuSans-45" transform="translate(601.5625 0)"/>
      <use xlink:href="#DejaVuSans-4c" transform="translate(665.046875 0)"/>
      <use xlink:href="#DejaVuSans-4f" transform="translate(692.828125 0)"/>
      <use xlink:href="#DejaVuSans-4c" transform="translate(720.609375 0)"/>
      <use xlink:href="#DejaVuSans-57" transform="translate(748.390625 0)"/>
      <use xlink:href="#DejaVuSans-5c" transform="translate(787.59375 0)"/>
      <use xlink:href="#DejaVuSans-3" transform="translate(846.78125 0)"/>
      <use xlink:href="#DejaVuSans-50" transform="translate(878.5625 0)"/>
      <use xlink:href="#DejaVuSans-4c" transform="translate(975.96875 0)"/>
      <use xlink:href="#DejaVuSans-5b" transform="translate(1003.75 0)"/>
      <use xlink:href="#DejaVuSans-57" transform="translate(1062.9375 0)"/>
      <use xlink:href="#DejaVuSans-58" transform="translate(1102.140625 0)"/>
      <use xlink:href="#DejaVuSans-55" transform="translate(1165.515625 0)"/>
      <use xlink:href="#DejaVuSans-48" transform="translate(1204.421875 0)"/>
     </g>
    </g>
    <g id="patch_22">
     <path d="M 453.557109 18.798437 
L 473.557109 18.798437 
L 473.557109 11.798437 
L 453.557109 11.798437 
z
" style="fill: #6e8ea6"/>
    </g>
    <g id="text_15">
     <!-- Weighted ordinary survey -->
     <g transform="translate(481.557109 18.798437) scale(0.1 -0.1)">
      <defs>
       <path id="DejaVuSans-3a" d="M 213 4666 
L 850 4666 
L 1831 722 
L 2809 4666 
L 3519 4666 
L 4500 722 
L 5478 4666 
L 6119 4666 
L 4947 0 
L 4153 0 
L 3169 4050 
L 2175 0 
L 1381 0 
L 213 4666 
z
" transform="scale(0.015625)"/>
       <path id="DejaVuSans-59" d="M 191 3500 
L 800 3500 
L 1894 563 
L 2988 3500 
L 3597 3500 
L 2284 0 
L 1503 0 
L 191 3500 
z
" transform="scale(0.015625)"/>
      </defs>
      <use xlink:href="#DejaVuSans-3a"/>
      <use xlink:href="#DejaVuSans-48" transform="translate(93.015625 0)"/>
      <use xlink:href="#DejaVuSans-4c" transform="translate(154.546875 0)"/>
      <use xlink:href="#DejaVuSans-4a" transform="translate(182.328125 0)"/>
      <use xlink:href="#DejaVuSans-4b" transform="translate(245.8125 0)"/>
      <use xlink:href="#DejaVuSans-57" transform="translate(309.1875 0)"/>
      <use xlink:href="#DejaVuSans-48" transform="translate(348.390625 0)"/>
      <use xlink:href="#DejaVuSans-47" transform="translate(409.921875 0)"/>
      <use xlink:href="#DejaVuSans-3" transform="translate(473.40625 0)"/>
      <use xlink:href="#DejaVuSans-52" transform="translate(505.1875 0)"/>
      <use xlink:href="#DejaVuSans-55" transform="translate(566.375 0)"/>
      <use xlink:href="#DejaVuSans-47" transform="translate(605.734375 0)"/>
      <use xlink:href="#DejaVuSans-4c" transform="translate(669.21875 0)"/>
      <use xlink:href="#DejaVuSans-51" transform="translate(697 0)"/>
      <use xlink:href="#DejaVuSans-44" transform="translate(760.375 0)"/>
      <use xlink:href="#DejaVuSans-55" transform="translate(821.65625 0)"/>
      <use xlink:href="#DejaVuSans-5c" transform="translate(862.765625 0)"/>
      <use xlink:href="#DejaVuSans-3" transform="translate(921.953125 0)"/>
      <use xlink:href="#DejaVuSans-56" transform="translate(953.734375 0)"/>
      <use xlink:href="#DejaVuSans-58" transform="translate(1005.828125 0)"/>
      <use xlink:href="#DejaVuSans-55" transform="translate(1069.203125 0)"/>
      <use xlink:href="#DejaVuSans-59" transform="translate(1110.3125 0)"/>
      <use xlink:href="#DejaVuSans-48" transform="translate(1169.5 0)"/>
      <use xlink:href="#DejaVuSans-5c" transform="translate(1231.03125 0)"/>
     </g>
    </g>
   </g>
  </g>
 </g>
 <defs>
  <clipPath id="p55c9e02020">
   <rect x="44.103906" y="46.015102" width="661.237656" height="312.965016"/>
  </clipPath>
 </defs>
</svg>
